<svg xmlns="http://www.w3.org/2000/svg" viewBox="0 0 591.54 838.53"><defs><style>.cls-1{opacity:0.2;}.cls-2{fill:none;}.cls-3{fill:#f1bc00;}</style></defs><title>dots-yellow</title><g id="Layer_2" data-name="Layer 2"><g id="HOme"><g id="bg"><g class="cls-1"><polygon class="cls-2" points="591.54 173.27 351.73 0 0 486.8 486.8 838.53 591.54 693.56 591.54 173.27"/><path class="cls-3" d="M375,417.6c14.57,10.53-1.48,32.75-16.05,22.21S360.44,407.06,375,417.6Z"/><path class="cls-3" d="M422.61,351.76c15.13,10.93-1.53,34-16.65,23.05S407.47,340.82,422.61,351.76Z"/><path class="cls-3" d="M442,465.4c15.09,10.9-1.53,33.91-16.62,23S426.9,454.47,442,465.4Z"/><path class="cls-3" d="M489.18,400.13c14.89,10.76-1.51,33.45-16.4,22.69S474.27,389.35,489.18,400.13Z"/><path class="cls-3" d="M319.51,394.39c3.35-4.64,3.58-11.62-2.46-16a10.91,10.91,0,0,0-9-2.05,11.92,11.92,0,0,0-6.91,4.72c-3.35,4.64-3.58,11.62,2.46,16S316.16,399,319.51,394.39Z"/><path class="cls-3" d="M367,329.09c3.41-4.73,3.64-11.83-2.51-16.28a11.16,11.16,0,0,0-9.2-2.08,12.17,12.17,0,0,0-7,4.8c-3.41,4.73-3.65,11.84,2.51,16.29S363.54,333.81,367,329.09Z"/><path class="cls-3" d="M479.54,510c-3.5,4.85-3.75,12.13,2.56,16.69s13.15,2,16.64-2.8,3.74-12.13-2.56-16.68a11.41,11.41,0,0,0-9.43-2.14A12.44,12.44,0,0,0,479.54,510Z"/><path class="cls-3" d="M527,444.73c-3.42,4.74-3.66,11.86,2.51,16.32s12.85,2,16.27-2.74,3.66-11.85-2.51-16.31a11.17,11.17,0,0,0-9.22-2.09A12.19,12.19,0,0,0,527,444.73Z"/><path class="cls-3" d="M381.88,525.75a11.24,11.24,0,0,0-2.1,9.28,12.23,12.23,0,0,0,4.85,7.1c4.77,3.44,11.94,3.68,16.42-2.52a11.24,11.24,0,0,0,2.1-9.28,12.23,12.23,0,0,0-4.85-7.1C393.53,519.79,386.37,519.55,381.88,525.75Z"/><path class="cls-3" d="M335.3,492.1a10.82,10.82,0,0,0,2-9,11.83,11.83,0,0,0-4.68-6.86c-4.6-3.32-11.52-3.55-15.85,2.44a10.86,10.86,0,0,0-2,9,11.76,11.76,0,0,0,4.68,6.85C324,497.86,331,498.09,335.3,492.1Z"/><path class="cls-3" d="M511.34,347.11a11,11,0,0,0-2,9,12,12,0,0,0,4.72,6.91c4.64,3.35,11.63,3.58,16-2.46a10.93,10.93,0,0,0,2-9,11.89,11.89,0,0,0-4.72-6.91C522.69,341.3,515.71,341.07,511.34,347.11Z"/><path class="cls-3" d="M464.84,313.51a11.27,11.27,0,0,0,2.1-9.28,12.25,12.25,0,0,0-4.86-7.1c-4.76-3.44-11.93-3.68-16.41,2.53a11.26,11.26,0,0,0-2.11,9.28,12.29,12.29,0,0,0,4.85,7.09C453.18,319.48,460.35,319.72,464.84,313.51Z"/><path class="cls-3" d="M287.24,309.41c10.84,7.83-1.09,24.34-11.93,16.52S276.39,301.57,287.24,309.41Z"/><path class="cls-3" d="M570.49,514.62c10.36,7.48-1,23.27-11.41,15.79S560.11,507.12,570.49,514.62Z"/><path class="cls-3" d="M405.08,245.85c2.09,12.94-17.64,16.12-19.73,3.17S403,232.88,405.08,245.85Z"/><path class="cls-3" d="M461,591.11c2.15,13.36-18.21,16.64-20.36,3.28S458.87,577.73,461,591.11Z"/><path class="cls-3" d="M533.69,284.29c-7.81,10.82-24.29-1.09-16.48-11.91S541.51,273.46,533.69,284.29Z"/><path class="cls-3" d="M328.81,567.78c-7.78,10.77-24.19-1.09-16.41-11.86S336.6,557,328.81,567.78Z"/><path class="cls-3" d="M591.54,383.22c-7.95,3.35-7,15,0,18.19Z"/><path class="cls-3" d="M251.9,457.37c-12.43,2-15.48-16.93-3.05-18.93S264.34,455.37,251.9,457.37Z"/><path class="cls-3" d="M199.9,364.54c7.83,5.66-.79,17.59-8.62,11.93S192.06,358.87,199.9,364.54Z"/><path class="cls-3" d="M307.05,216.25c7.86,5.68-.76,17.6-8.62,11.92S299.17,210.56,307.05,216.25Z"/><path class="cls-3" d="M540,610.48c7.66,5.53-.78,17.21-8.44,11.67S532.34,604.94,540,610.48Z"/><path class="cls-3" d="M474,199.91c-5.68,7.86-17.65-.79-12-8.65S479.69,192,474,199.91Z"/><path class="cls-3" d="M228.08,540c-5.57,7.7-17.31-.78-11.74-8.49S233.66,532.32,228.08,540Z"/><path class="cls-3" d="M376.57,647.32c-5.75,8-17.88-.8-12.13-8.76S382.33,639.35,376.57,647.32Z"/><path class="cls-3" d="M185.73,241.73c7.59,5.48-.76,17-8.35,11.56S178.14,236.24,185.73,241.73Z"/><path class="cls-3" d="M379.67,128.6c1.49,9.24-12.6,11.5-14.08,2.26S378.18,119.34,379.67,128.6Z"/><path class="cls-3" d="M472.94,707.66c1.49,9.24-12.59,11.51-14.08,2.27S471.45,698.41,472.94,707.66Z"/><path class="cls-3" d="M591.54,174.44a6.62,6.62,0,0,0-6.3,2.94c-4,5.56,1.11,11.52,6.3,11.33Z"/><path class="cls-3" d="M253.29,661.15c-5.48,7.58-17-.77-11.56-8.35S258.78,653.55,253.29,661.15Z"/><path class="cls-3" d="M130.86,472.94c-9.24,1.49-11.5-12.59-2.26-14.08S140.12,471.45,130.86,472.94Z"/></g></g></g></g></svg>