<svg xmlns="http://www.w3.org/2000/svg" viewBox="0 0 934.98 934.98"><defs><style>.cls-1{opacity:0.8;}.cls-2{fill:none;}.cls-3{fill:#f1bc00;}</style></defs><title>dots-yellow-medium</title><g id="Layer_2" data-name="Layer 2"><g id="Contact"><g id="bg"><g class="cls-1"><rect class="cls-2" x="132.66" y="132.66" width="669.66" height="669.66" transform="translate(-185.23 572.63) rotate(-54.15)"/><path class="cls-3" d="M418.18,465.64c16.25,11.74-1.64,36.51-17.9,24.77S401.91,453.88,418.18,465.64Z"/><path class="cls-3" d="M471.23,392.22c16.86,12.19-1.71,37.89-18.57,25.7S454.34,380,471.23,392.22Z"/><path class="cls-3" d="M492.87,518.93c16.83,12.16-1.71,37.81-18.54,25.65S476,506.75,492.87,518.93Z"/><path class="cls-3" d="M545.45,446.15c16.61,12-1.68,37.31-18.28,25.31S528.82,434.14,545.45,446.15Z"/><path class="cls-3" d="M356.27,439.75c3.73-5.17,4-12.95-2.74-17.81a12.22,12.22,0,0,0-10.08-2.28,13.26,13.26,0,0,0-7.7,5.26c-3.74,5.17-4,13,2.74,17.83S352.53,444.92,356.27,439.75Z"/><path class="cls-3" d="M409.17,366.94c3.8-5.26,4.06-13.19-2.8-18.15a12.44,12.44,0,0,0-10.26-2.32,13.56,13.56,0,0,0-7.84,5.36c-3.81,5.27-4.07,13.2,2.79,18.16S405.36,372.21,409.17,366.94Z"/><path class="cls-3" d="M534.7,568.67c-3.9,5.4-4.17,13.52,2.86,18.6s14.66,2.28,18.56-3.12,4.16-13.52-2.87-18.6a12.74,12.74,0,0,0-10.51-2.38A13.89,13.89,0,0,0,534.7,568.67Z"/><path class="cls-3" d="M587.65,495.89c-3.82,5.28-4.09,13.23,2.79,18.19s14.34,2.23,18.15-3.05,4.08-13.22-2.8-18.19a12.47,12.47,0,0,0-10.28-2.33A13.53,13.53,0,0,0,587.65,495.89Z"/><path class="cls-3" d="M425.81,586.23a12.55,12.55,0,0,0-2.34,10.35,13.57,13.57,0,0,0,5.41,7.91c5.31,3.84,13.31,4.11,18.31-2.81a12.55,12.55,0,0,0,2.34-10.35,13.66,13.66,0,0,0-5.41-7.91C438.8,579.58,430.81,579.31,425.81,586.23Z"/><path class="cls-3" d="M373.87,548.7a12.11,12.11,0,0,0,2.26-10,13.2,13.2,0,0,0-5.23-7.64c-5.13-3.71-12.85-4-17.67,2.72a12,12,0,0,0-2.26,10,13.14,13.14,0,0,0,5.22,7.64C361.32,555.13,369,555.38,373.87,548.7Z"/><path class="cls-3" d="M570.16,387a12.2,12.2,0,0,0-2.28,10.07,13.31,13.31,0,0,0,5.27,7.71c5.17,3.74,13,4,17.83-2.74A12.21,12.21,0,0,0,593.26,392a13.34,13.34,0,0,0-5.27-7.71C582.82,380.56,575,380.3,570.16,387Z"/><path class="cls-3" d="M518.31,349.57a12.53,12.53,0,0,0,2.34-10.34,13.67,13.67,0,0,0-5.41-7.92c-5.31-3.84-13.31-4.1-18.31,2.82a12.53,12.53,0,0,0-2.34,10.34,13.62,13.62,0,0,0,5.41,7.92C505.31,356.23,513.31,356.49,518.31,349.57Z"/><path class="cls-3" d="M320.29,345c12.08,8.72-1.23,27.14-13.31,18.41S308.19,336.26,320.29,345Z"/><path class="cls-3" d="M636.11,573.82c11.55,8.34-1.17,25.95-12.72,17.6S624.54,565.46,636.11,573.82Z"/><path class="cls-3" d="M451.68,274.13c2.33,14.43-19.67,18-22,3.54S449.35,259.67,451.68,274.13Z"/><path class="cls-3" d="M514.05,659.11c2.4,14.89-20.3,18.55-22.7,3.65S511.65,644.19,514.05,659.11Z"/><path class="cls-3" d="M595.08,317c-8.71,12.05-27.09-1.22-18.37-13.28S603.81,304.92,595.08,317Z"/><path class="cls-3" d="M366.64,633.09c-8.68,12-27-1.21-18.3-13.22S375.33,621.07,366.64,633.09Z"/><path class="cls-3" d="M666,448.33c-14.33,2.31-17.85-19.53-3.52-21.84S680.32,446,666,448.33Z"/><path class="cls-3" d="M280.87,510c-13.85,2.23-17.25-18.89-3.4-21.12S294.75,507.75,280.87,510Z"/><path class="cls-3" d="M222.89,406.47c8.73,6.31-.88,19.62-9.61,13.31S214.15,400.15,222.89,406.47Z"/><path class="cls-3" d="M342.37,241.12c8.76,6.33-.85,19.63-9.61,13.3S333.59,234.78,342.37,241.12Z"/><path class="cls-3" d="M602.13,680.71c8.54,6.17-.87,19.18-9.41,13S593.58,674.53,602.13,680.71Z"/><path class="cls-3" d="M721.59,515.37c8.52,6.15-.86,19.14-9.38,13S713.06,509.2,721.59,515.37Z"/><path class="cls-3" d="M528.54,222.91c-6.33,8.76-19.69-.89-13.36-9.65S534.88,214.14,528.54,222.91Z"/><path class="cls-3" d="M694,342.43c-6.14,8.5-19.61-1.24-13.47-9.74S700.1,333.92,694,342.43Z"/><path class="cls-3" d="M254.32,602.16c-6.21,8.59-19.31-.87-13.1-9.47S260.54,593.55,254.32,602.16Z"/><path class="cls-3" d="M419.89,721.79c-6.42,8.87-19.94-.9-13.53-9.78S426.31,712.9,419.89,721.79Z"/><path class="cls-3" d="M207.1,269.54c8.46,6.11-.86,19-9.32,12.89S198.63,263.42,207.1,269.54Z"/><path class="cls-3" d="M737.2,652.56c8.46,6.11-.85,19-9.31,12.89S728.73,646.44,737.2,652.56Z"/><path class="cls-3" d="M423.34,143.39c1.66,10.3-14,12.83-15.7,2.53S421.68,133.07,423.34,143.39Z"/><path class="cls-3" d="M527.34,789.07c1.66,10.3-14,12.83-15.7,2.53S525.68,778.75,527.34,789.07Z"/><path class="cls-3" d="M665.45,207.1c-6.11,8.46-19-.86-12.89-9.32S671.57,198.63,665.45,207.1Z"/><path class="cls-3" d="M282.43,737.2c-6.11,8.46-19-.85-12.89-9.31S288.55,728.73,282.43,737.2Z"/><path class="cls-3" d="M791.6,423.34c-10.31,1.66-12.84-14-2.53-15.7S801.91,421.68,791.6,423.34Z"/><path class="cls-3" d="M145.92,527.34c-10.3,1.66-12.83-14-2.53-15.7S156.23,525.68,145.92,527.34Z"/></g></g></g></g></svg>