<svg xmlns="http://www.w3.org/2000/svg" viewBox="0 0 565.47 565.47"><defs><style>.cls-1{opacity:0.2;}.cls-2{fill:none;}.cls-3{fill:#f1bc00;}</style></defs><title>dots light yellow</title><g id="Layer_2" data-name="Layer 2"><g id="Contact"><g id="bg"><g class="cls-1"><rect class="cls-2" x="80.23" y="80.23" width="405" height="405" transform="translate(-112.02 346.32) rotate(-54.15)"/><path class="cls-3" d="M252.91,281.61c9.83,7.11-1,22.08-10.82,15S243.07,274.5,252.91,281.61Z"/><path class="cls-3" d="M285,237.21c10.2,7.37-1,22.91-11.23,15.55S274.78,229.83,285,237.21Z"/><path class="cls-3" d="M298.08,313.84c10.18,7.36-1,22.87-11.21,15.52S287.89,306.48,298.08,313.84Z"/><path class="cls-3" d="M329.88,269.83c10.05,7.25-1,22.56-11.06,15.3S319.82,262.56,329.88,269.83Z"/><path class="cls-3" d="M215.47,266a7.48,7.48,0,0,0-1.66-10.78,7.4,7.4,0,0,0-6.09-1.38,8,8,0,0,0-4.66,3.19,7.66,7.66,0,1,0,12.41,9Z"/><path class="cls-3" d="M247.46,221.92a7.89,7.89,0,0,0-7.9-12.38,8.21,8.21,0,0,0-4.74,3.24,7.8,7.8,0,1,0,12.64,9.14Z"/><path class="cls-3" d="M323.38,343.92a7.81,7.81,0,0,0,1.73,11.26c4.25,3.07,8.86,1.37,11.22-1.89s2.52-8.18-1.73-11.25a7.69,7.69,0,0,0-6.36-1.44A8.4,8.4,0,0,0,323.38,343.92Z"/><path class="cls-3" d="M355.4,299.91a7.82,7.82,0,1,0,11-1.84,7.52,7.52,0,0,0-6.22-1.41A8.15,8.15,0,0,0,355.4,299.91Z"/><path class="cls-3" d="M257.53,354.55a7.56,7.56,0,0,0-1.42,6.25,8.21,8.21,0,0,0,3.27,4.79,7.68,7.68,0,0,0,11.07-1.7,7.58,7.58,0,0,0,1.42-6.26,8.32,8.32,0,0,0-3.27-4.79C265.38,350.52,260.55,350.36,257.53,354.55Z"/><path class="cls-3" d="M226.11,331.85a7.32,7.32,0,0,0,1.37-6,8,8,0,0,0-3.16-4.63,7.41,7.41,0,0,0-10.69,1.65,7.32,7.32,0,0,0-1.37,6,8,8,0,0,0,3.16,4.62A7.41,7.41,0,0,0,226.11,331.85Z"/><path class="cls-3" d="M344.83,234.08a7.36,7.36,0,0,0-1.38,6.09,8.05,8.05,0,0,0,3.18,4.66,7.48,7.48,0,0,0,10.79-1.66,7.36,7.36,0,0,0,1.37-6.09,8,8,0,0,0-3.18-4.66A7.47,7.47,0,0,0,344.83,234.08Z"/><path class="cls-3" d="M313.47,211.42a7.61,7.61,0,0,0,1.41-6.26,8.21,8.21,0,0,0-3.27-4.79,7.68,7.68,0,0,0-11.07,1.7,7.59,7.59,0,0,0-1.42,6.26,8.21,8.21,0,0,0,3.27,4.79A7.69,7.69,0,0,0,313.47,211.42Z"/><path class="cls-3" d="M193.7,208.65c7.31,5.28-.73,16.42-8,11.14S186.39,203.37,193.7,208.65Z"/><path class="cls-3" d="M384.71,347c7,5-.7,15.69-7.69,10.64S377.71,342,384.71,347Z"/><path class="cls-3" d="M273.17,165.79c1.41,8.73-11.9,10.87-13.3,2.14S271.76,157.05,273.17,165.79Z"/><path class="cls-3" d="M310.89,398.62c1.46,9-12.28,11.22-13.73,2.21S309.44,389.6,310.89,398.62Z"/><path class="cls-3" d="M359.9,191.71c-5.27,7.3-16.38-.73-11.12-8S365.17,184.41,359.9,191.71Z"/><path class="cls-3" d="M221.74,382.88c-5.25,7.27-16.32-.73-11.07-8S227,375.61,221.74,382.88Z"/><path class="cls-3" d="M402.77,271.14c-8.67,1.4-10.8-11.81-2.13-13.21S411.45,269.74,402.77,271.14Z"/><path class="cls-3" d="M169.87,308.43c-8.38,1.35-10.44-11.42-2.06-12.77S178.26,307.08,169.87,308.43Z"/><path class="cls-3" d="M134.8,245.83c5.28,3.81-.53,11.86-5.81,8S129.52,242,134.8,245.83Z"/><path class="cls-3" d="M207.06,145.83c5.3,3.83-.51,11.87-5.81,8S201.75,142,207.06,145.83Z"/><path class="cls-3" d="M364.16,411.68c5.17,3.73-.52,11.61-5.69,7.87S359,407.94,364.16,411.68Z"/><path class="cls-3" d="M436.41,311.69c5.15,3.72-.52,11.57-5.68,7.85S431.25,308,436.41,311.69Z"/><path class="cls-3" d="M319.65,134.81c-3.83,5.3-11.9-.53-8.07-5.83S323.49,129.51,319.65,134.81Z"/><path class="cls-3" d="M419.69,207.1c-3.71,5.14-11.86-.75-8.15-5.89S423.41,202,419.69,207.1Z"/><path class="cls-3" d="M153.81,364.18c-3.76,5.19-11.68-.53-7.92-5.73S157.57,359,153.81,364.18Z"/><path class="cls-3" d="M253.94,436.53c-3.88,5.36-12.06-.55-8.18-5.91S257.82,431.15,253.94,436.53Z"/><path class="cls-3" d="M125.25,163c5.12,3.7-.52,11.49-5.63,7.8S120.13,159.31,125.25,163Z"/><path class="cls-3" d="M445.85,394.66c5.12,3.69-.52,11.49-5.63,7.79S440.73,391,445.85,394.66Z"/><path class="cls-3" d="M256,86.72c1,6.23-8.49,7.76-9.49,1.53S255,80.48,256,86.72Z"/><path class="cls-3" d="M318.93,477.22c1,6.23-8.49,7.76-9.5,1.53S317.93,471,318.93,477.22Z"/><path class="cls-3" d="M402.45,125.25c-3.69,5.12-11.49-.52-7.79-5.63S406.16,120.13,402.45,125.25Z"/><path class="cls-3" d="M170.81,445.85c-3.7,5.12-11.49-.52-7.8-5.63S174.51,440.73,170.81,445.85Z"/><path class="cls-3" d="M478.75,256c-6.23,1-7.76-8.49-1.53-9.5S485,255,478.75,256Z"/><path class="cls-3" d="M88.25,318.93c-6.23,1-7.76-8.49-1.53-9.49S94.49,317.93,88.25,318.93Z"/></g></g></g></g></svg>