<svg xmlns="http://www.w3.org/2000/svg" viewBox="0 0 467.49 467.49"><defs><style>.cls-1{opacity:0.2;}.cls-2{fill:none;}.cls-3{fill:#3a352e;}</style></defs><title>dots-grey</title><g id="Layer_2" data-name="Layer 2"><g id="About"><g id="bg"><g class="cls-1"><rect class="cls-2" x="66.33" y="66.33" width="334.83" height="334.83" transform="translate(-92.61 286.31) rotate(-54.15)"/><path class="cls-3" d="M209.09,232.82c8.13,5.87-.82,18.26-9,12.38S201,226.94,209.09,232.82Z"/><path class="cls-3" d="M235.61,196.11c8.44,6.09-.85,18.94-9.28,12.85S227.17,190,235.61,196.11Z"/><path class="cls-3" d="M246.43,259.47c8.42,6.08-.85,18.9-9.26,12.82S238,253.38,246.43,259.47Z"/><path class="cls-3" d="M272.73,223.08c8.3,6-.84,18.65-9.15,12.65S264.41,217.07,272.73,223.08Z"/><path class="cls-3" d="M178.13,219.88a6.17,6.17,0,0,0-1.37-8.91,6.07,6.07,0,0,0-5-1.14,6.58,6.58,0,0,0-3.85,2.63,6.33,6.33,0,1,0,10.25,7.42Z"/><path class="cls-3" d="M204.58,183.47a6.28,6.28,0,0,0-1.39-9.07,6.19,6.19,0,0,0-5.13-1.16,6.74,6.74,0,0,0-3.93,2.68,6.45,6.45,0,1,0,10.45,7.55Z"/><path class="cls-3" d="M267.35,284.33a6.61,6.61,0,1,0,9.28-1.55,6.35,6.35,0,0,0-5.26-1.19A6.92,6.92,0,0,0,267.35,284.33Z"/><path class="cls-3" d="M293.82,247.94a6.46,6.46,0,1,0,9.07-1.52,6.21,6.21,0,0,0-5.14-1.16A6.79,6.79,0,0,0,293.82,247.94Z"/><path class="cls-3" d="M212.91,293.12a6.25,6.25,0,0,0-1.18,5.17,6.86,6.86,0,0,0,2.71,4,6.34,6.34,0,0,0,9.15-1.41,6.21,6.21,0,0,0,1.17-5.17,6.77,6.77,0,0,0-2.7-4A6.34,6.34,0,0,0,212.91,293.12Z"/><path class="cls-3" d="M186.94,274.35a6,6,0,0,0,1.12-5,6.57,6.57,0,0,0-2.61-3.83,6.35,6.35,0,0,0-10,6.36,6.6,6.6,0,0,0,2.61,3.82A6.14,6.14,0,0,0,186.94,274.35Z"/><path class="cls-3" d="M285.08,193.52a6.12,6.12,0,0,0-1.14,5,6.65,6.65,0,0,0,2.63,3.85A6.41,6.41,0,0,0,296.63,196a6.59,6.59,0,0,0-2.64-3.85A6.17,6.17,0,0,0,285.08,193.52Z"/><path class="cls-3" d="M259.16,174.79a6.3,6.3,0,0,0,1.17-5.18,6.81,6.81,0,0,0-2.71-4,6.58,6.58,0,0,0-10.33,6.58,6.84,6.84,0,0,0,2.71,3.95A6.35,6.35,0,0,0,259.16,174.79Z"/><path class="cls-3" d="M160.14,172.5c6,4.37-.61,13.57-6.65,9.21S154.09,168.13,160.14,172.5Z"/><path class="cls-3" d="M318.06,286.91c5.77,4.17-.59,13-6.37,8.8S312.27,282.73,318.06,286.91Z"/><path class="cls-3" d="M225.84,137.06c1.16,7.22-9.84,9-11,1.77S224.68,129.84,225.84,137.06Z"/><path class="cls-3" d="M257,329.55c1.2,7.45-10.16,9.28-11.36,1.83S255.83,322.09,257,329.55Z"/><path class="cls-3" d="M297.54,158.5c-4.36,6-13.54-.61-9.19-6.64S301.9,152.46,297.54,158.5Z"/><path class="cls-3" d="M183.32,316.55c-4.34,6-13.49-.61-9.15-6.62S187.66,310.53,183.32,316.55Z"/><path class="cls-3" d="M333,224.16c-7.16,1.16-8.92-9.76-1.75-10.92S340.16,223,333,224.16Z"/><path class="cls-3" d="M140.44,255c-6.93,1.12-8.63-9.44-1.7-10.55S147.37,253.88,140.44,255Z"/><path class="cls-3" d="M111.45,203.24c4.36,3.15-.45,9.8-4.81,6.65S107.07,200.08,111.45,203.24Z"/><path class="cls-3" d="M171.18,120.56c4.39,3.17-.42,9.82-4.8,6.65S166.79,117.39,171.18,120.56Z"/><path class="cls-3" d="M301.06,340.35c4.27,3.09-.43,9.6-4.7,6.51S296.79,337.26,301.06,340.35Z"/><path class="cls-3" d="M360.8,257.68c4.26,3.08-.43,9.58-4.7,6.5S356.53,254.6,360.8,257.68Z"/><path class="cls-3" d="M264.27,111.46c-3.17,4.38-9.84-.45-6.68-4.83S267.44,107.07,264.27,111.46Z"/><path class="cls-3" d="M347,171.21c-3.07,4.25-9.81-.62-6.74-4.86S350.05,167,347,171.21Z"/><path class="cls-3" d="M127.16,301.08c-3.11,4.3-9.65-.44-6.55-4.73S130.27,296.78,127.16,301.08Z"/><path class="cls-3" d="M209.94,360.89c-3.2,4.44-10-.45-6.76-4.88S213.15,356.45,209.94,360.89Z"/><path class="cls-3" d="M103.55,134.77c4.23,3-.43,9.5-4.66,6.44S99.31,131.71,103.55,134.77Z"/><path class="cls-3" d="M368.6,326.28c4.23,3.05-.43,9.5-4.66,6.44S364.37,323.22,368.6,326.28Z"/><path class="cls-3" d="M211.67,71.69c.83,5.16-7,6.42-7.85,1.27S210.84,66.54,211.67,71.69Z"/><path class="cls-3" d="M263.67,394.53c.83,5.15-7,6.42-7.85,1.27S262.84,389.37,263.67,394.53Z"/><path class="cls-3" d="M332.72,103.55c-3.05,4.23-9.5-.43-6.44-4.66S335.78,99.31,332.72,103.55Z"/><path class="cls-3" d="M141.21,368.6c-3.05,4.23-9.5-.43-6.44-4.66S144.27,364.37,141.21,368.6Z"/><path class="cls-3" d="M395.8,211.67c-5.15.83-6.42-7-1.27-7.85S401,210.84,395.8,211.67Z"/><path class="cls-3" d="M73,263.67c-5.15.83-6.42-7-1.27-7.85S78.12,262.84,73,263.67Z"/></g></g></g></g></svg>