<svg xmlns="http://www.w3.org/2000/svg" viewBox="0 0 93.76 74.12"><defs><style>.cls-1{fill:#fff;}</style></defs><title>ICO3</title><g id="Layer_2" data-name="Layer 2"><g id="Areas"><g id="txt_block3" data-name="txt block3"><path id="ICO3" class="cls-1" d="M0,8.55c.42-.24.86-.71,1.26-.69C5.2,8.12,6.62,6.3,6,2.49A1.85,1.85,0,0,1,7.57.34a26.7,26.7,0,0,1,8.37,0c1.76.27,1.88,1.83,1.66,3.16C17,7.07,18.74,7.71,21.89,7.59c5.72-.21,11.45-.07,17.18,0,2.31,0,4.66-.12,6.65,1.42a1.56,1.56,0,0,0,2,.15c2.55-2,5.55-1.55,8.44-1.56,11.09,0,22.18,0,33.27-.06,3.08,0,4.33.88,4.31,4.17q-.2,25.59,0,51.19c0,3.21-1.11,4.28-4.26,4.24-11.7-.12-23.41,0-35.11-.07-2.75,0-5.17.13-5.85,3.48a1.66,1.66,0,0,1-1.85,1.43A1.94,1.94,0,0,1,45,70.2C44.44,67.46,42.53,67,40.1,67c-11.71.06-23.41,0-35.11,0a16.14,16.14,0,0,1-5-.69ZM90,37.43c0-7.68-.07-15.36,0-23,0-2.26-.44-3.22-3-3.19q-16.81.19-33.63,0c-3.49,0-4.81,1.51-4.75,4.86.1,5.24,0,10.48,0,15.72,0,9.62,0,19.25,0,28.88,0,1.2-.81,2.89,1.9,2.84q18.09-.28,36.19-.12c2.62,0,3.26-.83,3.22-3.32C89.92,52.54,90,45,90,37.43ZM3.68,37.08c0,7.56.13,15.12-.06,22.67-.07,2.81.63,3.73,3.6,3.69q17.91-.21,35.83.12c2.35,0,1.9-1.27,1.9-2.49,0-15.12,0-30.23,0-45.35,0-3.29-1.55-4.51-4.74-4.49-11.21.08-22.42.11-33.64,0-2.54,0-3,1-3,3.2C3.75,22,3.68,29.52,3.68,37.08Zm8-29.57c1.24,0,2.22,0,2.28-1.62s-.62-2.15-2.12-2c-1.1.08-2.17,0-2.24,1.61S10.27,7.64,11.67,7.51ZM86.86,74.08c1.4,0,3.27.15,3.14-2-.12-1.82-1.84-1.68-3.13-1.69q-15.12,0-30.23,0c-1.41,0-3.29-.13-3.15,2,.12,1.8,1.83,1.67,3.13,1.68,5.1,0,10.2,0,15.3,0S81.88,74.14,86.86,74.08Zm-50,0c1.41,0,3.33.16,3.27-1.9s-2-1.8-3.38-1.81q-14.94,0-29.89,0c-1.37,0-3.3-.26-3.24,1.9s2,1.78,3.35,1.79c5,.07,10,0,14.94,0S31.83,74.14,36.81,74.09ZM58.45,39.61c-1.3,0-2.94,0-2.93,1.87s1.68,1.81,3,1.82q10.92.06,21.83,0c1.31,0,3,0,3-1.85s-1.67-1.83-3-1.85c-3.64-.05-7.28,0-10.92,0S62.08,39.55,58.45,39.61Zm-.29,10.62c-1.28,0-2.63.13-2.66,1.76s1.25,1.89,2.56,1.9H80.61c1.31,0,2.67-.33,2.68-1.81,0-1.81-1.56-1.85-2.94-1.85H58.16Zm22-17.5c1.37,0,3,0,3.07-1.74s-1.48-1.94-2.89-1.94H58.2c-1.3,0-2.65.2-2.69,1.76,0,1.85,1.48,1.92,2.86,1.92H80.21ZM64.79,18.6c-2.42,0-4.84,0-7.26,0-1,0-2,.31-2,1.6a1.67,1.67,0,0,0,1.74,1.91q7.44.12,14.88,0A1.71,1.71,0,0,0,74,20.34c0-1.27-.9-1.68-1.93-1.7-2.42-.06-4.84,0-7.27,0ZM35.44,43.29c1.19,0,2.65,0,2.74-1.67.11-1.94-1.48-2-2.79-2q-11.1-.06-22.2,0c-1.22,0-2.68.16-2.77,1.71-.12,1.88,1.5,2,2.83,2,3.64.06,7.28,0,10.91,0S31.68,43.34,35.44,43.29Zm0,10.6c1.4,0,2.86-.19,2.73-2.06-.12-1.65-1.57-1.59-2.79-1.6H13.19c-1.26,0-2.69.08-2.77,1.65-.08,1.79,1.42,2,2.82,2,3.76,0,7.52,0,11.28,0S31.8,53.91,35.44,53.89Zm0-21.16c1.27,0,2.66-.08,2.74-1.69.09-1.86-1.4-2-2.8-2H13.18c-1.28,0-2.68.2-2.76,1.71-.1,1.81,1.42,2,2.82,2h22.2ZM19.58,22.25c2.31,0,4.62.05,6.93,0,1.26,0,2.57-.41,2.51-2-.06-1.39-1.28-1.64-2.42-1.64q-6.93,0-13.86,0c-1.13,0-2.31.29-2.34,1.72s1.14,1.83,2.25,1.88c2.3.1,4.62,0,6.93,0Z"/></g></g></g></svg>