<svg xmlns="http://www.w3.org/2000/svg" viewBox="0 0 65.19 93.46"><defs><style>.cls-1{fill:#fff;}</style></defs><title>ICO4</title><g id="Layer_2" data-name="Layer 2"><g id="Areas"><g id="txt_block4" data-name="txt block4"><path id="ICO4" class="cls-1" d="M62.61,0c2,1.35,2.58,3.32,2.58,5.66,0,23.91,0,47.82,0,71.73,0,4.82-1.19,5.92-6.17,5.93-10.13,0-20.25.09-30.38,0-2.57,0-3.61.76-3.21,3.3a1.53,1.53,0,0,1,0,.37c-.39,2.17,1.23,5.25-1.35,6.31s-3.46-2.08-4.83-3.6-2-1-3.12.2c-1.35,1.41-2.28,4.26-4.62,3.45-2.64-.92-1.6-3.87-1.43-5.87.28-3.39-.89-4.35-4.22-4.18C1.25,83.48,0,82.09,0,77.39,0,53.48,0,29.57,0,5.66,0,3.32.54,1.35,2.58,0ZM61.16,41.64h.06c0-11.46-.09-22.93.07-34.39,0-2.78-.79-3.48-3.5-3.46Q32.55,4,7.3,3.81c-2.42,0-3.41.47-3.39,3.17C4,30,4,53.08,4,76.13c0,1.06-.73,2.72,1,3,1.51.27,3.46.8,4.55-.37s-.06-2.62-.89-3.89A11,11,0,0,1,24,59.57a11,11,0,0,1,2.78,15.22c-.72,1.12-1.9,2.15-1.28,3.59.71,1.63,2.35.88,3.56.89,9.52.06,19,0,28.54.08,2.52,0,3.64-.36,3.59-3.32C61,64.57,61.16,53.11,61.16,41.64ZM17.56,61.51a7.23,7.23,0,0,0-7,7,7.08,7.08,0,0,0,7.14,7.14,7,7,0,0,0,6.93-7.31A7.12,7.12,0,0,0,17.56,61.51ZM21.5,86.19c0-3,.9-6-.4-6.66a9.19,9.19,0,0,0-6.57,0C13,80.29,14,83.23,14.14,86,16.66,82.47,19,82.59,21.5,86.19Zm26-55.57c1.58,0,3.64.18,3.76-1.89s-2-2.08-3.53-2.08q-15.18,0-30.35,0c-1.44,0-3.35-.09-3.39,1.86,0,2.2,1.94,2.1,3.53,2.11h30Zm.58,11.14c1.52,0,3.24,0,3.21-2,0-1.74-1.64-1.81-3-1.81q-15.54,0-31.08,0c-1.5,0-3.31,0-3.21,2s1.91,1.84,3.4,1.83H48.05ZM47.9,53c1.44,0,3.33.16,3.34-1.87s-1.72-2-3.25-2q-15.36,0-30.7,0c-1.54,0-3.29.07-3.36,1.94-.06,2,1.82,1.95,3.27,1.95,5.12,0,10.24,0,15.35,0S42.79,53,47.9,53ZM48,19.3c1.46,0,3.33,0,3.24-2-.09-1.85-1.85-1.92-3.38-1.92q-15.18,0-30.34,0c-1.6,0-3.62-.12-3.57,2s2.2,1.83,3.71,1.85c5,.05,10,0,15,0S42.9,19.33,48,19.3Zm.55,45c1.31,0,2.59-.42,2.71-1.88s-1.21-2-2.48-2q-6.94-.09-13.89,0c-1.24,0-2.57.35-2.5,2s1.39,1.86,2.64,1.89c2.19.07,4.39,0,6.58,0S46.26,64.3,48.57,64.28Z"/></g></g></g></svg>