<svg xmlns="http://www.w3.org/2000/svg" viewBox="0 0 93.68 90.16"><defs><style>.cls-1{fill:#fff;}</style></defs><title>ICO5</title><g id="Layer_2" data-name="Layer 2"><g id="Areas"><g id="txt_block5" data-name="txt block5"><path id="ICO5" class="cls-1" d="M0,74.35c2.06-4.6,4.88-8.36,10.19-9.54,1.94-.43,1.2-2.17,1.2-3.36,0-15.11,0-30.22,0-45.33A43.59,43.59,0,0,1,11.66,11,12,12,0,0,1,22.1.37,101.52,101.52,0,0,1,33.41,0C48.28,0,63.15,0,78,0a22.43,22.43,0,0,1,6.88.72,12.68,12.68,0,0,1-2.71,24.69c-1,.09-2,.13-2.92.14-7.47.1-7.47.1-7.47,7.42q0,21.38,0,42.77C71.76,85,66.86,90,57.62,90.1c-14.5.11-29,0-43.51.06C7,90.2,2.53,86.6,0,80.21ZM71.46,4C55,4,39.43,3.81,23.84,4c-5.45.07-8.49,3.91-8.51,9.88-.06,15.85,0,31.71-.09,47.56,0,2.76,1,3.17,3.43,3.15,10.12-.11,20.25,0,30.37,0,3.05,0,6.1,0,9.15,0,1.1,0,2.33.15,2.5,1.58.19,1.65-1.08,2-2.32,2.22-.48.1-1,.07-1.45.2a8.95,8.95,0,0,0,3.72,17.49c4.41-.69,7.42-4.6,7.42-9.86q0-29.46,0-58.91C68,12.8,68,8.34,71.46,4ZM49.59,86.19c-4.3-6.1-4.3-11.76,0-17.68-13.14,0-25.76-.18-38.37.1-4.11.09-7.6,5-7.38,9.11C4.06,82,7.66,86.06,12,86.12,24.28,86.3,36.58,86.19,49.59,86.19ZM80.91,3.93a9.07,9.07,0,0,0-8.54,6.18c-1.43,4-.8,4.85,3.42,4.86a28.24,28.24,0,0,0,2.91,0c2.87-.29,4.45.7,4.07,3.85-.34,2.87,1,2.71,2.86,1.55a9,9,0,0,0,3.84-9.8A9.06,9.06,0,0,0,80.91,3.93ZM75.62,22c.91-1,3.46,1,3.34-1.87-.1-2.47-2.24-1.3-3.37-1.28S72,17.54,71.91,20.16,74.26,21.19,75.62,22ZM53.75,49.53c1.39,0,3,0,3.08-1.76s-1.44-2-2.88-2H28.75c-1.44,0-3,.24-2.9,2s1.68,1.77,3.06,1.77H53.75Zm.14-27c1.4,0,3-.1,3-1.88,0-1.41-1.34-1.86-2.69-1.86H28.61c-1.32,0-2.68.34-2.76,1.78-.1,1.82,1.45,1.95,2.85,1.95,4.14,0,8.28,0,12.41,0ZM28.8,32.33c-1.35,0-3,.07-2.95,1.9,0,1.5,1.4,1.86,2.68,1.86q12.77,0,25.54,0c1.29,0,2.68-.34,2.76-1.79.11-1.83-1.5-2-2.86-2-4.25,0-8.51,0-12.77,0S32.93,32.29,28.8,32.33Z"/></g></g></g></svg>