<svg xmlns="http://www.w3.org/2000/svg" viewBox="0 0 94.01 83.56"><defs><style>.cls-1{fill:#fff;}</style></defs><title>ICO6</title><g id="Layer_2" data-name="Layer 2"><g id="Areas"><g id="txt_block6" data-name="txt block6"><path id="ICO6" class="cls-1" d="M94,71.81c-3.81,9-11,10.32-17.93,3.27Q61,59.65,45.9,44.21c-.86-.87-1.6-2.83-3-2.07a5.92,5.92,0,0,0-3.31,4.11c-1.18,7.23-4.53,9.32-11.39,6.72-7.57-2.87-13-8.09-15.62-15.85-1.85-5.55.39-9,6.22-9.77a5.18,5.18,0,0,0,3.29-2q5.78-6.12,11.53-12.27C35.77,10.84,37.8,8.8,38,5.15,38.29,1,42.57-.89,47.42.4,54,2.16,58.77,6.4,62.36,12a19.92,19.92,0,0,1,2.39,5.3c1.51,5.42-.44,8.57-6,9.29-2.31.3-3.34,1.88-4.55,3.3s.58,2.08,1.34,2.74c8.74,7.6,17.55,15.13,26.33,22.68,2.22,1.91,4.4,3.87,6.68,5.7A15.64,15.64,0,0,1,94,68.15Zm-4.29-2.72A5.22,5.22,0,0,0,87.6,65C75.87,54.91,64.1,44.85,52.39,34.72c-2.51-2.18-3.09.56-4.18,1.55s-3.06,1.91-1,4c10.88,11,21.67,22.13,32.51,33.2a6.42,6.42,0,0,0,1.46,1.08C85.13,76.75,89.78,74,89.72,69.09ZM53.22,25.37a8,8,0,0,0-.84-1.21c-3.9-3.68-7.82-7.34-11.7-11-1.27-1.21-1.91-.19-2.65.6-4.26,4.53-8.47,9.1-12.79,13.57-1.22,1.25-1.19,2,.11,3.18C29,33.72,32.57,37,36,40.48c1.5,1.49,2.29,1,3.47-.31,3.94-4.32,8-8.53,12-12.8C52.06,26.76,52.59,26.09,53.22,25.37Zm-20.08,25A2.5,2.5,0,0,0,35.4,49c.69-1.57.78-3.24-.46-4.44q-6.67-6.49-13.59-12.75c-1.29-1.17-3-1-4.47-.15-1.11.61-1.22,1.7-1.12,2.87C16.35,41,26.13,50.21,33.14,50.37ZM44.62,3.75a2.57,2.57,0,0,0-2.89,1.69,3.52,3.52,0,0,0,.63,4.08c4.46,4.32,9,8.58,13.59,12.73,1.27,1.14,3,.93,4.46.1,1.05-.6,1.21-1.67,1.09-2.87C60.86,13,51,3.71,44.62,3.75ZM20.24,83.55c-4.88,0-9.75,0-14.63,0-4.34,0-4.65-1.1-5.44-5.42-1-5.6,3-8.1,5.64-11.52.73-1,2-.78,3.09-.79,7.44,0,14.87,0,22.31,0,2.12,0,3.88.43,4.66,2.68.12.34.23.87.47,1,5.3,1.85,3.27,6.36,3.55,9.95.22,2.91-1.46,4.19-4.29,4.18C30.48,83.54,25.36,83.55,20.24,83.55Zm-.09-3.67c4,0,8.07-.26,12.06.08,3.5.3,4.46-1,4.09-4.24-.16-1.4-.35-2.3-2-2.36a1.77,1.77,0,0,1-1.81-1.92c0-1.7-.91-2-2.32-2-6.7,0-13.41,0-20.11,0-1,0-2.08-.06-2.14,1.34-.08,1.8-1.13,2.26-2.73,2.78-2.4.79-.88,3.12-1.14,4.75s1.14,1.5,2.21,1.5C10.89,79.89,15.52,79.88,20.15,79.88Z"/></g></g></g></svg>