<svg xmlns="http://www.w3.org/2000/svg" viewBox="0 0 75.32 93.74"><defs><style>.cls-1{fill:#fff;}</style></defs><title>ICO7</title><g id="Layer_2" data-name="Layer 2"><g id="Areas"><g id="txt_block7" data-name="txt block7"><path id="ICO7" class="cls-1" d="M1.05,93.74c-1-1.37-1-2.94-1-4.54C.07,66.75.13,44.3,0,21.86c0-3.59,1.26-4.64,4.69-4.56,6.85.15,6.82,0,6.86-6.93C11.63-1.81,10.21.15,21.78.07c13.3-.1,26.6,0,39.9,0,9.87,0,13.54,3.61,13.55,13.35,0,22.32-.13,44.65.08,67,.07,6.55-2.14,11.07-8.38,13.37ZM71.17,19.11c-3.66,2.26-7.43,2.4-11.18,2.11-2.68-.21-3.57.56-3.5,3.37.21,7.68.08,15.36.07,23,0,1.44.29,3.11-1.29,3.92s-2.64-.71-3.65-1.65c-5.11-4.76-5.08-4.77-10-.17-1,1-2,2.47-3.68,1.75S36.62,49,36.61,47.61c0-7.43-.15-14.87,0-22.3.07-3-.45-4.27-3.92-4.14-8.4.3-16.82.22-25.22,0-2.87-.07-3.64.72-3.62,3.6q.2,30.72,0,61.43c0,2.8.64,3.72,3.59,3.7,18.28-.14,36.56-.05,54.85-.08,6.66,0,9-2.38,9-9.06q0-29.06,0-58.13C71.32,21.61,71.24,20.56,71.17,19.11Zm-30-1.75v0c7.68,0,15.37.12,23.05-.05,4.23-.09,7-2.82,7-6.46S68.64,4.48,64.56,4a27.75,27.75,0,0,0-3.29-.08q-17.75,0-35.5,0c-10.52,0-10.45,0-10.22,10.58,0,2.24.73,2.92,2.94,2.89C26.05,17.29,33.61,17.36,41.18,17.36ZM52.49,44.88c0-7.77,0-14.77,0-21.77,0-1.45-.69-1.74-2-1.87-10-1-10-1-10,8.83,0,1.94,0,3.89,0,5.84.1,2.81-.36,5.68.36,8.65C46.56,39.72,46.56,39.72,52.49,44.88Z"/></g></g></g></svg>