<svg xmlns="http://www.w3.org/2000/svg" viewBox="0 0 93.71 83.32"><defs><style>.cls-1{fill:#fff;}</style></defs><title>ICO9</title><g id="Layer_2" data-name="Layer 2"><g id="Areas"><g id="txt_block8" data-name="txt block8"><path id="ICO9" class="cls-1" d="M0,16.76c1.52-2.39,3.7-3.17,6.5-3.12,7.31.13,14.63,0,21.94.09,2.25,0,3.17-.46,3.2-3C31.79,0,31.89,0,42.51,0,47,0,51.53,0,56,0c4.3.08,5.89,1.75,6.07,6.05.3,7.57.3,7.57,8,7.57,5.85,0,11.7,0,17.55,0,4.42.05,6,1.57,6,5.93q.06,28.7,0,57.4c0,4.64-1.67,6.23-6.53,6.25-12.55,0-25.1,0-37.66,0-14,0-28-.06-42,0-3,0-5.46-.63-7.45-2.88ZM4.92,27a6.29,6.29,0,0,0-.47,1.29c0,16,0,31.94-.09,47.91,0,2.87,1.51,2.72,3.45,2.72,26,0,51.94-.07,77.9.06,3,0,3.6-1,3.59-3.77-.11-15,0-30,0-45,0-.89.43-1.93-.48-2.76a3.86,3.86,0,0,0-.84.64C80.17,38.4,70.56,46.1,57.74,49.2c-1.73.42-1.76,1.62-1.81,3-.24,7.34-.78,7.84-8.12,7.84H45.62c-7,0-7.74-.64-7.82-7.74,0-2.19-.89-3-2.81-3.4a42.1,42.1,0,0,1-11.44-4.68C16.08,40.07,10.22,34.13,4.92,27Zm83.9-8.64H5a32.55,32.55,0,0,0,4.7,7.63C16.34,34.53,24.39,41.18,35,44.33c1.17.35,2.69,1.27,2.79-1.2.17-4.09,2.65-5.39,6.38-5.21,2.07.09,4.14,0,6.22,0,3.14,0,5.23,1.32,5.38,4.62.1,2.19,1,2.34,2.78,1.79C72.19,40.09,81.48,30.78,88.82,18.31ZM47,4.42c-1.7,0-3.41,0-5.11,0-6.43.16-5.66-1.36-5.89,6.17-.08,2.45.81,3.16,3.15,3.09,4.63-.14,9.26,0,13.88,0s4.45,0,4.8-4.71c.28-3.76-.93-5.06-4.62-4.56A47.62,47.62,0,0,1,47,4.42ZM51.4,49.23c0-7.31,0-7.26-6.83-6.91-1.66.08-2.44.48-2.38,2.27.1,2.91,0,5.84,0,8.76,0,1.09-.06,2,1.54,2.35,6.22,1.19,7.64.12,7.64-6.11Z"/></g></g></g></svg>